<svg xmlns="http://www.w3.org/2000/svg" xmlns:xlink="http://www.w3.org/1999/xlink" width="500" zoomAndPan="magnify" viewBox="0 0 375 374.999991" height="500" preserveAspectRatio="xMidYMid meet" version="1.0"><path fill="#f2e6dc" d="M 375 187.5 C 375 291.054688 291.050781 375 187.5 375 C 83.945312 375 0 291.054688 0 187.5 C 0 83.949219 83.945312 0 187.5 0 C 291.050781 0 375 83.949219 375 187.5 " fill-opacity="1" fill-rule="nonzero"/><path fill="#d3bba3" d="M 2.34375 267.945312 L 257.289062 267.945312 L 257.289062 87.160156 L 2.34375 87.160156 L 2.34375 267.945312 " fill-opacity="1" fill-rule="nonzero"/><path fill="#f7f1eb" d="M 249.289062 244.449219 L 249.289062 95.15625 L 10.339844 95.15625 L 10.339844 244.449219 L 249.289062 244.449219 " fill-opacity="1" fill-rule="nonzero"/><path fill="#d3bba3" d="M 102.980469 271.773438 L 110.527344 271.773438 C 110.527344 277.4375 115.117188 282.027344 120.777344 282.027344 L 138.851562 282.027344 C 144.515625 282.027344 149.105469 277.4375 149.105469 271.773438 L 156.652344 271.773438 L 164.199219 311.886719 L 164.199219 315.238281 L 95.429688 315.238281 L 95.429688 311.886719 L 102.980469 271.773438 " fill-opacity="1" fill-rule="nonzero"/><path fill="#d3bba3" d="M 164.199219 319.886719 L 95.429688 319.886719 C 95.179688 319.886719 94.980469 319.683594 94.980469 319.433594 C 94.980469 319.183594 95.179688 318.980469 95.429688 318.980469 L 164.199219 318.980469 C 164.449219 318.980469 164.652344 319.183594 164.652344 319.433594 C 164.652344 319.683594 164.449219 319.886719 164.199219 319.886719 " fill-opacity="1" fill-rule="nonzero"/><path fill="#e6d0be" d="M 25.988281 226.71875 L 38.1875 226.71875 L 38.1875 193.261719 L 25.988281 193.261719 L 25.988281 226.71875 " fill-opacity="1" fill-rule="nonzero"/><path fill="#e6d0be" d="M 46.125 226.71875 L 58.324219 226.71875 L 58.324219 186.597656 L 46.125 186.597656 L 46.125 226.71875 " fill-opacity="1" fill-rule="nonzero"/><path fill="#e6d0be" d="M 66.261719 226.71875 L 78.460938 226.71875 L 78.460938 162.019531 L 66.261719 162.019531 Z M 66.261719 226.71875 " fill-opacity="1" fill-rule="nonzero"/><path fill="#e6d0be" d="M 86.394531 226.71875 L 98.597656 226.71875 L 98.597656 172.167969 L 86.394531 172.167969 Z M 86.394531 226.71875 " fill-opacity="1" fill-rule="nonzero"/><path fill="#e6d0be" d="M 106.5625 226.71875 L 118.761719 226.71875 L 118.761719 145.398438 L 106.5625 145.398438 Z M 106.5625 226.71875 " fill-opacity="1" fill-rule="nonzero"/><path fill="#e6d0be" d="M 126.695312 226.71875 L 138.898438 226.71875 L 138.898438 161.46875 L 126.695312 161.46875 Z M 126.695312 226.71875 " fill-opacity="1" fill-rule="nonzero"/><path fill="#e6d0be" d="M 146.832031 226.71875 L 159.035156 226.71875 L 159.035156 184.757812 L 146.832031 184.757812 Z M 146.832031 226.71875 " fill-opacity="1" fill-rule="nonzero"/><path fill="#e6d0be" d="M 166.96875 226.71875 L 179.171875 226.71875 L 179.171875 169.773438 L 166.96875 169.773438 Z M 166.96875 226.71875 " fill-opacity="1" fill-rule="nonzero"/><path fill="#e6d0be" d="M 187.117188 226.71875 L 199.320312 226.71875 L 199.320312 178.773438 L 187.117188 178.773438 Z M 187.117188 226.71875 " fill-opacity="1" fill-rule="nonzero"/><path fill="#e6d0be" d="M 207.253906 226.71875 L 219.457031 226.71875 L 219.457031 155.414062 L 207.253906 155.414062 Z M 207.253906 226.71875 " fill-opacity="1" fill-rule="nonzero"/><path fill="#e6d0be" d="M 227.417969 226.71875 L 239.621094 226.71875 L 239.621094 193.265625 L 227.417969 193.265625 Z M 227.417969 226.71875 " fill-opacity="1" fill-rule="nonzero"/><path fill="#bc8271" d="M 333.046875 317.617188 L 327.078125 344.648438 L 308.199219 344.648438 L 308.199219 315.890625 L 333.046875 317.617188 " fill-opacity="1" fill-rule="nonzero"/><path fill="#bc8271" d="M 266.539062 314.230469 L 259.808594 342.675781 L 238.167969 342.667969 L 243.402344 314.222656 L 266.539062 314.230469 " fill-opacity="1" fill-rule="nonzero"/><path fill="#363e44" d="M 259.8125 341.714844 L 257.421875 373.863281 L 197.582031 373.84375 C 205.683594 361.398438 218.859375 347.03125 238.238281 341.707031 L 259.8125 341.714844 " fill-opacity="1" fill-rule="nonzero"/><path fill="#363e44" d="M 327.320312 343.535156 C 327.320312 344.714844 334.902344 374.425781 334.902344 374.425781 L 291.472656 374.425781 L 308.558594 343.535156 L 327.320312 343.535156 " fill-opacity="1" fill-rule="nonzero"/><path fill="#8b865c" d="M 312.636719 170.683594 C 312.636719 170.683594 318.546875 209.007812 271.582031 323.859375 L 240.945312 323.859375 C 240.945312 323.859375 265.179688 183.625 267.765625 165.9375 L 312.636719 170.683594 " fill-opacity="1" fill-rule="nonzero"/><path fill="#8b865c" d="M 338.65625 176.289062 C 338.65625 176.289062 350.53125 236.710938 334.570312 323.859375 L 306.09375 323.859375 C 306.09375 323.859375 300.988281 197.433594 293.652344 178.449219 L 338.65625 176.289062 " fill-opacity="1" fill-rule="nonzero"/><path fill="#363e44" d="M 299.949219 232.300781 C 299.710938 232.300781 299.511719 232.113281 299.496094 231.871094 L 298.179688 205.851562 L 289.09375 202.722656 C 288.859375 202.640625 288.734375 202.386719 288.8125 202.148438 C 288.894531 201.914062 289.152344 201.789062 289.386719 201.867188 L 298.761719 205.097656 C 298.933594 205.15625 299.054688 205.316406 299.0625 205.5 L 300.402344 231.824219 C 300.414062 232.074219 300.222656 232.285156 299.972656 232.300781 L 299.949219 232.300781 " fill-opacity="1" fill-rule="nonzero"/><path fill="#bc8271" d="M 350.992188 157.21875 L 349.835938 157.660156 L 328.972656 128.851562 L 350.5 109.644531 L 361.039062 132.804688 C 365.375 142.320312 360.765625 153.515625 350.992188 157.21875 " fill-opacity="1" fill-rule="nonzero"/><path fill="#bc8271" d="M 264.40625 105.667969 C 264.40625 105.667969 253.257812 115.929688 247.117188 109.285156 C 240.75 102.394531 233.308594 94.453125 229.449219 90.714844 C 221.492188 83.015625 208.628906 72.804688 207.222656 74.625 C 206.421875 75.660156 207.886719 77.414062 212.121094 81.847656 C 211.683594 81.835938 210.347656 82.132812 209.761719 83.214844 C 208.898438 84.820312 210 85.871094 210.054688 86.011719 C 209.90625 85.996094 208.207031 85.910156 207.445312 86.882812 C 206.585938 87.980469 206.765625 89.152344 207.289062 90.109375 C 206.921875 90.082031 205.339844 90.226562 204.65625 91.199219 C 203.765625 92.460938 204.472656 94.019531 205.40625 94.890625 C 207.109375 96.496094 211.878906 100.757812 214.109375 103.335938 C 216.890625 106.539062 227.789062 119.859375 235.425781 129.222656 C 240.207031 135.085938 247.882812 137.746094 255.269531 136.105469 L 264.078125 134.148438 L 264.40625 105.667969 " fill-opacity="1" fill-rule="nonzero"/><path fill="#363e44" d="M 220.851562 99.605469 C 220.691406 99.605469 220.53125 99.515625 220.449219 99.355469 C 219.308594 97.082031 219.320312 94.964844 219.328125 93.425781 C 219.335938 91.796875 219.300781 91 218.484375 90.683594 C 217.492188 90.296875 216.550781 89.414062 215.683594 88.046875 C 215.359375 87.53125 215.386719 86.878906 215.757812 86.386719 C 216.132812 85.898438 216.757812 85.691406 217.351562 85.871094 L 224.238281 87.953125 C 224.476562 88.027344 224.613281 88.277344 224.539062 88.515625 C 224.46875 88.757812 224.21875 88.890625 223.976562 88.820312 L 217.085938 86.738281 C 216.742188 86.632812 216.53125 86.863281 216.476562 86.933594 C 216.421875 87.007812 216.257812 87.265625 216.449219 87.5625 C 217.199219 88.746094 218.015625 89.53125 218.808594 89.839844 C 220.246094 90.394531 220.238281 91.800781 220.230469 93.429688 C 220.222656 94.960938 220.214844 96.871094 221.257812 98.949219 C 221.367188 99.175781 221.277344 99.445312 221.058594 99.554688 C 220.992188 99.589844 220.921875 99.605469 220.851562 99.605469 " fill-opacity="1" fill-rule="nonzero"/><path fill="#363e44" d="M 209.277344 97.085938 C 209.167969 97.085938 209.054688 97.042969 208.96875 96.960938 C 208.785156 96.789062 208.78125 96.503906 208.949219 96.320312 C 210.078125 95.125 210.09375 93.242188 208.980469 92.03125 L 208.003906 90.976562 C 207.851562 90.804688 207.84375 90.546875 208 90.371094 C 208.152344 90.195312 208.410156 90.167969 208.597656 90.300781 L 210.90625 91.929688 C 211.636719 92.445312 212.628906 92.363281 213.265625 91.742188 C 213.628906 91.390625 213.824219 90.917969 213.824219 90.417969 C 213.824219 89.914062 213.625 89.445312 213.261719 89.09375 L 210.566406 86.472656 C 210.394531 86.304688 210.378906 86.035156 210.539062 85.851562 C 210.699219 85.671875 210.96875 85.644531 211.15625 85.792969 L 212.589844 86.914062 C 213.179688 87.378906 214.042969 87.28125 214.519531 86.699219 C 214.96875 86.152344 214.929688 85.355469 214.4375 84.851562 L 212.589844 82.96875 C 212.417969 82.789062 212.421875 82.503906 212.601562 82.328125 C 212.777344 82.15625 213.0625 82.160156 213.238281 82.335938 L 215.082031 84.21875 C 215.898438 85.054688 215.957031 86.367188 215.222656 87.269531 C 214.792969 87.792969 214.175781 88.078125 213.542969 88.109375 L 213.890625 88.445312 C 214.425781 88.96875 214.726562 89.667969 214.726562 90.417969 C 214.726562 91.164062 214.433594 91.863281 213.898438 92.386719 C 212.964844 93.300781 211.519531 93.433594 210.441406 92.707031 C 210.980469 94.121094 210.703125 95.78125 209.605469 96.941406 C 209.515625 97.035156 209.398438 97.085938 209.277344 97.085938 " fill-opacity="1" fill-rule="nonzero"/><path fill="#ffffff" d="M 339.90625 135.472656 L 361.097656 126.53125 C 361.097656 126.53125 356.285156 113.292969 351.304688 105.496094 C 346.023438 97.238281 338.71875 93.753906 328.976562 92.703125 C 315.140625 91.207031 290.175781 93.285156 272.355469 99.046875 C 249.835938 106.332031 248.84375 106.992188 248.84375 106.992188 L 260.433594 137.789062 L 268.050781 135.800781 L 258.753906 195.5 L 349.65625 198.855469 C 349.65625 198.855469 342.554688 146.070312 339.90625 135.472656 " fill-opacity="1" fill-rule="nonzero"/><path fill="#efbc73" d="M 269.425781 156.996094 L 300.167969 156.996094 L 286.144531 117.625 L 255.402344 117.625 L 269.425781 156.996094 " fill-opacity="1" fill-rule="nonzero"/><path fill="#ffd092" d="M 264.363281 120.652344 L 281.777344 120.652344 L 280.179688 115.796875 L 262.433594 115.796875 L 264.363281 120.652344 " fill-opacity="1" fill-rule="nonzero"/><path fill="#363e44" d="M 281.625 121.023438 C 281.429688 121.023438 281.25 120.894531 281.191406 120.695312 L 279.960938 116.386719 L 262.421875 116.386719 C 262.171875 116.386719 261.96875 116.183594 261.96875 115.9375 C 261.96875 115.6875 262.171875 115.484375 262.421875 115.484375 L 280.304688 115.484375 C 280.503906 115.484375 280.683594 115.617188 280.734375 115.8125 L 282.0625 120.445312 C 282.128906 120.6875 281.988281 120.9375 281.75 121.003906 C 281.707031 121.019531 281.667969 121.023438 281.625 121.023438 " fill-opacity="1" fill-rule="nonzero"/><path fill="#363e44" d="M 275.664062 115.726562 C 275.46875 115.726562 275.285156 115.597656 275.226562 115.398438 L 274 111.089844 L 265.667969 111.089844 L 266.828125 115.152344 C 266.894531 115.390625 266.757812 115.640625 266.515625 115.710938 C 266.28125 115.777344 266.027344 115.640625 265.957031 115.398438 L 264.632812 110.765625 C 264.59375 110.625 264.621094 110.480469 264.707031 110.367188 C 264.792969 110.253906 264.925781 110.1875 265.066406 110.1875 L 274.339844 110.1875 C 274.539062 110.1875 274.71875 110.320312 274.773438 110.515625 L 276.097656 115.152344 C 276.167969 115.390625 276.027344 115.640625 275.789062 115.710938 C 275.746094 115.71875 275.703125 115.726562 275.664062 115.726562 " fill-opacity="1" fill-rule="nonzero"/><path fill="#363e44" d="M 270.53125 112.746094 C 270.140625 112.746094 269.824219 113.0625 269.824219 113.453125 C 269.824219 113.84375 270.140625 114.160156 270.53125 114.160156 C 270.921875 114.160156 271.238281 113.84375 271.238281 113.453125 C 271.238281 113.0625 270.921875 112.746094 270.53125 112.746094 Z M 270.53125 115.066406 C 269.640625 115.066406 268.921875 114.34375 268.921875 113.453125 C 268.921875 112.566406 269.640625 111.84375 270.53125 111.84375 C 271.417969 111.84375 272.140625 112.566406 272.140625 113.453125 C 272.140625 114.34375 271.417969 115.066406 270.53125 115.066406 " fill-opacity="1" fill-rule="nonzero"/><path fill="#bc8271" d="M 345.671875 135.472656 C 335.152344 136.175781 310.304688 136.609375 307.882812 136.746094 C 303.347656 137.007812 279.0625 139.027344 278.976562 142.566406 C 278.933594 144.253906 283.628906 144.074219 285.214844 143.96875 C 283.980469 144.6875 278.925781 146.921875 279.371094 148.765625 C 279.894531 150.929688 286.324219 149.183594 286.445312 149.21875 C 285.109375 149.820312 279.710938 152 279.992188 153.390625 C 280.355469 155.207031 285.988281 154.6875 287.664062 154.449219 C 287.523438 154.707031 282.09375 156.023438 282.441406 158.207031 C 282.691406 159.804688 287.855469 159.320312 290.097656 159.117188 C 294.125 158.890625 341.09375 158.785156 349.820312 157.648438 C 353.234375 157.203125 350.292969 138.769531 345.671875 135.472656 " fill-opacity="1" fill-rule="nonzero"/><path fill="#363e44" d="M 323.015625 136.691406 C 322.773438 136.691406 322.574219 136.496094 322.566406 136.253906 C 322.554688 136.003906 322.753906 135.792969 323 135.785156 C 328.339844 135.609375 342.285156 134.988281 345.679688 134.800781 C 345.925781 134.785156 346.140625 134.976562 346.152344 135.226562 C 346.167969 135.476562 345.976562 135.6875 345.730469 135.703125 C 342.332031 135.890625 328.375 136.515625 323.03125 136.691406 L 323.015625 136.691406 " fill-opacity="1" fill-rule="nonzero"/><path fill="#363e44" d="M 285.148438 144.257812 C 284.972656 144.257812 284.808594 144.152344 284.734375 143.984375 C 284.636719 143.753906 284.738281 143.488281 284.972656 143.390625 C 285.863281 143.007812 286.789062 142.683594 287.722656 142.425781 C 289.398438 141.964844 291.140625 141.710938 292.894531 141.671875 L 292.902344 141.671875 C 293.148438 141.671875 293.347656 141.863281 293.355469 142.113281 C 293.359375 142.363281 293.160156 142.570312 292.914062 142.574219 C 291.230469 142.609375 289.566406 142.855469 287.960938 143.296875 C 287.066406 143.542969 286.179688 143.851562 285.328125 144.222656 C 285.269531 144.246094 285.210938 144.257812 285.148438 144.257812 " fill-opacity="1" fill-rule="nonzero"/><path fill="#363e44" d="M 286.34375 149.5625 C 286.148438 149.5625 285.972656 149.433594 285.914062 149.242188 C 285.839844 149 285.972656 148.75 286.210938 148.675781 C 286.40625 148.613281 286.605469 148.558594 286.808594 148.503906 C 288.488281 148.042969 290.226562 147.785156 291.980469 147.746094 L 291.992188 147.746094 C 292.234375 147.746094 292.4375 147.945312 292.441406 148.191406 C 292.449219 148.441406 292.25 148.644531 292 148.652344 C 290.320312 148.691406 288.65625 148.933594 287.046875 149.375 C 286.855469 149.429688 286.664062 149.484375 286.476562 149.542969 C 286.433594 149.554688 286.390625 149.5625 286.34375 149.5625 " fill-opacity="1" fill-rule="nonzero"/><path fill="#363e44" d="M 287.769531 154.847656 C 287.558594 154.847656 287.367188 154.695312 287.324219 154.480469 C 287.28125 154.234375 287.441406 154 287.691406 153.953125 C 288.808594 153.746094 289.953125 153.628906 291.101562 153.601562 L 291.109375 153.601562 C 291.351562 153.601562 291.554688 153.800781 291.558594 154.042969 C 291.566406 154.292969 291.371094 154.5 291.121094 154.507812 C 290.023438 154.53125 288.925781 154.644531 287.851562 154.84375 C 287.828125 154.847656 287.796875 154.847656 287.769531 154.847656 " fill-opacity="1" fill-rule="nonzero"/><path fill="#363e44" d="M 280.238281 58.914062 C 282.902344 51.578125 290.722656 48.941406 298.703125 47.851562 C 310.996094 46.171875 304.167969 30.117188 310.402344 26.019531 C 316.636719 21.917969 324.9375 33.722656 333.726562 14.15625 L 360.476562 41.515625 C 357.304688 50.46875 344.285156 51.476562 344.285156 51.476562 C 357.195312 55.007812 362.570312 50.386719 364.816406 45.953125 L 368.484375 49.703125 C 368.484375 49.703125 367.757812 61.03125 354.710938 59.289062 C 342.910156 57.71875 339.835938 61.933594 345.4375 71.554688 C 351.039062 81.175781 331.984375 106.003906 298 81.847656 L 283.375 70.105469 C 280.042969 67.429688 278.773438 62.929688 280.238281 58.914062 " fill-opacity="1" fill-rule="nonzero"/><path fill="#40484c" d="M 310.902344 72.648438 C 309.757812 72.648438 309.019531 72.492188 308.988281 72.484375 C 308.746094 72.429688 308.59375 72.1875 308.648438 71.941406 C 308.707031 71.703125 308.949219 71.546875 309.191406 71.601562 C 309.601562 71.695312 319.359375 73.753906 322.503906 60.878906 C 325.941406 46.835938 331.472656 46.25 342.605469 46.3125 C 347.046875 46.339844 350.335938 45.402344 352.136719 43.601562 C 353.5625 42.175781 353.574219 40.71875 353.570312 40.660156 C 353.570312 40.410156 353.769531 40.203125 354.019531 40.203125 C 354.25 40.191406 354.472656 40.398438 354.472656 40.644531 C 354.476562 40.722656 354.488281 42.511719 352.800781 44.214844 C 350.800781 46.234375 347.347656 47.25 342.597656 47.21875 C 331.371094 47.148438 326.671875 47.65625 323.386719 61.09375 C 320.886719 71.316406 314.210938 72.648438 310.902344 72.648438 " fill-opacity="1" fill-rule="nonzero"/><path fill="#363e44" d="M 334.972656 85.015625 C 334.914062 85.015625 334.859375 85.015625 334.796875 85.011719 C 334.550781 85.007812 334.347656 84.804688 334.355469 84.554688 C 334.355469 84.308594 334.558594 84.109375 334.804688 84.109375 L 334.808594 84.109375 C 338.066406 84.140625 341.28125 82.929688 343.675781 80.757812 C 346.074219 78.585938 347.609375 75.492188 347.886719 72.265625 C 347.9375 71.671875 347.953125 71.042969 347.96875 70.433594 C 348.011719 68.507812 348.058594 66.511719 349.214844 64.90625 C 351.152344 62.210938 354.992188 62.316406 356.550781 62.488281 C 357.425781 62.585938 358.304688 62.742188 359.148438 62.898438 C 360.828125 63.203125 362.414062 63.492188 364.023438 63.34375 C 368.046875 62.960938 371.582031 59.375 371.898438 55.339844 C 371.917969 55.09375 372.136719 54.910156 372.386719 54.925781 C 372.632812 54.945312 372.820312 55.164062 372.796875 55.410156 C 372.449219 59.863281 368.554688 63.820312 364.109375 64.242188 C 362.375 64.402344 360.652344 64.089844 358.988281 63.785156 C 358.15625 63.632812 357.296875 63.476562 356.453125 63.386719 C 355.046875 63.230469 351.609375 63.125 349.949219 65.433594 C 348.957031 66.816406 348.910156 68.582031 348.871094 70.453125 C 348.855469 71.078125 348.839844 71.71875 348.789062 72.34375 C 348.492188 75.792969 346.847656 79.105469 344.28125 81.429688 C 341.761719 83.710938 338.375 85.015625 334.972656 85.015625 " fill-opacity="1" fill-rule="nonzero"/><path fill="#363e44" d="M 284.773438 69.367188 C 284.726562 69.367188 284.675781 69.359375 284.628906 69.34375 C 280.785156 68.011719 278.085938 63.84375 278.203125 59.429688 C 278.3125 55.511719 280.488281 51.566406 284.023438 48.871094 C 286.96875 46.632812 290.800781 45.195312 295.410156 44.601562 C 296.046875 44.519531 296.683594 44.453125 297.324219 44.386719 C 299.625 44.148438 302.007812 43.90625 304.046875 42.878906 C 307.847656 40.964844 309.960938 36.089844 308.757812 32.011719 C 308.691406 31.769531 308.828125 31.519531 309.066406 31.449219 C 309.308594 31.378906 309.554688 31.515625 309.625 31.753906 C 310.96875 36.308594 308.691406 41.550781 304.453125 43.683594 C 302.265625 44.789062 299.796875 45.042969 297.414062 45.285156 C 296.78125 45.351562 296.152344 45.417969 295.527344 45.5 C 291.074219 46.070312 287.390625 47.449219 284.574219 49.589844 C 281.25 52.121094 279.207031 55.808594 279.109375 59.453125 C 279 63.484375 281.441406 67.285156 284.921875 68.488281 C 285.160156 68.570312 285.285156 68.828125 285.199219 69.0625 C 285.136719 69.25 284.960938 69.367188 284.773438 69.367188 " fill-opacity="1" fill-rule="nonzero"/><path fill="#bc8271" d="M 302.640625 102.15625 L 302.734375 102.144531 C 305.921875 101.71875 308.152344 98.792969 307.730469 95.609375 L 305.46875 78.703125 C 305.039062 75.519531 302.113281 73.28125 298.933594 73.707031 L 298.839844 73.71875 C 295.65625 74.144531 293.421875 77.070312 293.847656 80.253906 L 296.109375 97.164062 C 296.535156 100.34375 299.460938 102.582031 302.640625 102.15625 " fill-opacity="1" fill-rule="nonzero"/><path fill="#bc8271" d="M 298.582031 56.304688 C 297.984375 56.195312 292.230469 55.210938 288.394531 58.863281 C 285.542969 61.582031 284.898438 65.335938 284.769531 71.800781 C 284.617188 79.410156 285.589844 83.980469 287.636719 85.664062 C 290.867188 88.324219 301.644531 83.957031 306.101562 77.691406 C 309.320312 73.167969 309.539062 67 306.996094 62.023438 C 304.460938 57.0625 298.964844 56.375 298.582031 56.304688 " fill-opacity="1" fill-rule="nonzero"/><path fill="#363e44" d="M 292.117188 86.769531 C 291.898438 86.769531 291.707031 86.609375 291.671875 86.386719 C 291.632812 86.140625 291.800781 85.910156 292.046875 85.871094 C 296.3125 85.179688 302.597656 81.835938 305.730469 77.429688 C 305.875 77.226562 306.160156 77.179688 306.363281 77.324219 C 306.566406 77.46875 306.613281 77.75 306.46875 77.953125 C 303.070312 82.726562 296.578125 86.054688 292.191406 86.761719 C 292.167969 86.765625 292.140625 86.769531 292.117188 86.769531 " fill-opacity="1" fill-rule="nonzero"/><path fill="#363e44" d="M 286.460938 61.476562 C 288.816406 53.964844 300.363281 51.738281 306.71875 55.753906 C 313.511719 60.046875 314.589844 69.367188 312.636719 74.742188 C 311.476562 77.941406 308.371094 82.515625 305.820312 81.503906 C 302.730469 80.285156 305.066406 74.679688 300.519531 68.726562 C 297.007812 64.125 289.457031 65.144531 286.460938 61.476562 " fill-opacity="1" fill-rule="nonzero"/><path fill="#bc8271" d="M 298.617188 70.8125 C 297.277344 73.09375 297.753906 75.859375 299.683594 76.992188 C 301.613281 78.125 304.261719 77.191406 305.601562 74.910156 C 306.941406 72.625 306.464844 69.859375 304.535156 68.726562 C 302.605469 67.59375 299.957031 68.527344 298.617188 70.8125 " fill-opacity="1" fill-rule="nonzero"/><path fill="#363e44" d="M 303.601562 74.753906 C 303.496094 74.753906 303.390625 74.71875 303.308594 74.648438 C 303.121094 74.488281 303.09375 74.203125 303.253906 74.011719 C 303.34375 73.902344 303.425781 73.792969 303.496094 73.671875 C 303.769531 73.203125 303.875 72.675781 303.789062 72.1875 C 303.710938 71.726562 303.46875 71.359375 303.113281 71.148438 C 302.933594 71.042969 302.734375 70.984375 302.523438 70.96875 C 302.273438 70.953125 302.085938 70.738281 302.101562 70.488281 C 302.117188 70.238281 302.339844 70.046875 302.582031 70.066406 C 302.9375 70.089844 303.269531 70.191406 303.570312 70.371094 C 304.160156 70.714844 304.554688 71.308594 304.679688 72.035156 C 304.800781 72.730469 304.65625 73.476562 304.273438 74.128906 C 304.179688 74.292969 304.066406 74.449219 303.945312 74.59375 C 303.855469 74.699219 303.730469 74.753906 303.601562 74.753906 " fill-opacity="1" fill-rule="nonzero"/><path fill="#ffffff" d="M 297.828125 70.015625 C 297.828125 70.015625 295.816406 69.214844 293.535156 69.476562 C 293.050781 69.535156 294.414062 73.3125 294.847656 73.039062 C 296.765625 71.839844 297.828125 70.015625 297.828125 70.015625 " fill-opacity="1" fill-rule="nonzero"/><path fill="#373e44" d="M 292.058594 69.808594 C 292.550781 69.636719 293.046875 69.539062 293.53125 69.484375 C 294.589844 70.386719 295.050781 71.746094 294.847656 73.039062 C 294.414062 73.3125 293.933594 73.554688 293.410156 73.734375 C 290.597656 74.703125 287.640625 73.527344 287.640625 73.527344 C 287.640625 73.527344 289.246094 70.777344 292.058594 69.808594 " fill-opacity="1" fill-rule="nonzero"/><path fill="#363e44" d="M 289.683594 80.320312 C 289.300781 80.320312 288.914062 80.210938 288.578125 79.984375 C 288.367188 79.847656 288.308594 79.566406 288.449219 79.359375 C 288.585938 79.152344 288.863281 79.09375 289.074219 79.230469 C 289.472656 79.492188 289.980469 79.476562 290.316406 79.191406 C 290.726562 78.839844 290.632812 78.230469 290.632812 78.226562 C 290.589844 77.980469 290.757812 77.746094 291.003906 77.707031 C 291.246094 77.664062 291.484375 77.832031 291.523438 78.078125 C 291.542969 78.191406 291.683594 79.210938 290.902344 79.878906 C 290.558594 80.171875 290.125 80.320312 289.683594 80.320312 " fill-opacity="1" fill-rule="nonzero"/><path fill="#363e44" d="M 285.625 77.355469 C 285.542969 77.355469 285.457031 77.332031 285.386719 77.285156 C 284.539062 76.75 284.144531 76.21875 284.179688 75.652344 C 284.207031 75.265625 284.429688 75.019531 284.625 74.800781 C 284.761719 74.652344 284.902344 74.5 285.03125 74.273438 C 285.222656 73.933594 285.324219 73.539062 285.335938 73.101562 C 285.34375 72.855469 285.546875 72.660156 285.789062 72.660156 L 285.800781 72.660156 C 286.046875 72.667969 286.246094 72.875 286.238281 73.125 C 286.222656 73.714844 286.082031 74.25 285.820312 74.71875 C 285.640625 75.035156 285.449219 75.242188 285.296875 75.410156 C 285.148438 75.574219 285.085938 75.644531 285.082031 75.710938 C 285.074219 75.859375 285.273438 76.148438 285.867188 76.519531 C 286.078125 76.65625 286.140625 76.933594 286.007812 77.144531 C 285.921875 77.28125 285.777344 77.355469 285.625 77.355469 " fill-opacity="1" fill-rule="nonzero"/><path fill="#2d353a" d="M 199.320312 86.460938 L 2.339844 86.460938 L 2.339844 44.066406 L 199.320312 44.066406 L 199.320312 86.460938 " fill-opacity="1" fill-rule="nonzero"/><path fill="#40484c" d="M 191.488281 82.074219 L 10.171875 82.074219 L 10.171875 48.449219 L 191.488281 48.449219 L 191.488281 82.074219 " fill-opacity="1" fill-rule="nonzero"/><path fill="#faf5f1" d="M 208.363281 295.675781 L 205.296875 267.945312 L 233.289062 267.945312 C 226.839844 276.886719 218.632812 286.503906 208.363281 295.675781 " fill-opacity="1" fill-rule="nonzero"/><path fill="#ede4da" d="M 233.289062 267.945312 L 205.296875 267.945312 L 202.699219 244.449219 L 247.570312 244.449219 C 244.339844 250.886719 239.679688 259.082031 233.289062 267.945312 M 249.289062 240.90625 L 249.289062 227.238281 L 253.550781 230.664062 C 253.550781 230.664062 252.265625 234.574219 249.289062 240.90625 " fill-opacity="1" fill-rule="nonzero"/><path fill="#fcf9f7" d="M 247.570312 244.449219 L 202.699219 244.449219 L 199.320312 213.875 L 199.320312 187.0625 L 207.253906 193.441406 L 207.253906 226.71875 L 219.457031 226.71875 L 219.457031 203.253906 L 227.417969 209.65625 L 227.417969 226.71875 L 239.621094 226.71875 L 239.621094 219.464844 L 249.289062 227.238281 L 249.289062 240.90625 C 248.769531 242.015625 248.195312 243.199219 247.570312 244.449219 " fill-opacity="1" fill-rule="nonzero"/><path fill="#f5ece5" d="M 199.320312 213.875 L 196.066406 184.445312 L 199.320312 187.0625 L 199.320312 213.875 " fill-opacity="1" fill-rule="nonzero"/><path fill="#f5ece5" d="M 219.457031 226.71875 L 207.253906 226.71875 L 207.253906 193.441406 L 219.457031 203.253906 L 219.457031 226.71875 " fill-opacity="1" fill-rule="nonzero"/><path fill="#f5ece5" d="M 239.621094 226.71875 L 227.417969 226.71875 L 227.417969 209.65625 L 239.621094 219.464844 L 239.621094 226.71875 " fill-opacity="1" fill-rule="nonzero"/><path fill="#ffffff" d="M 29.078125 87.160156 L 27.949219 87.160156 L 27.667969 86.457031 L 29.527344 86.457031 C 29.378906 86.6875 29.230469 86.921875 29.078125 87.160156 " fill-opacity="1" fill-rule="nonzero"/><path fill="#faf5f1" d="M 75.066406 87.160156 L 29.078125 87.160156 C 29.230469 86.921875 29.378906 86.6875 29.527344 86.457031 L 74.195312 86.457031 L 75.066406 87.160156 " fill-opacity="1" fill-rule="nonzero"/><path fill="#ede4da" d="M 85.015625 95.15625 L 31.148438 95.15625 L 27.949219 87.160156 L 75.066406 87.160156 L 85.015625 95.15625 " fill-opacity="1" fill-rule="nonzero"/><path fill="#fcf9f7" d="M 89.65625 241.324219 L 78.460938 213.355469 L 78.460938 162.019531 L 66.261719 162.019531 L 66.261719 182.871094 L 31.148438 95.15625 L 85.015625 95.15625 L 132.976562 133.722656 L 118.761719 169.027344 L 118.761719 145.398438 L 106.5625 145.398438 L 106.5625 199.335938 L 98.597656 219.117188 L 98.597656 172.164062 L 86.394531 172.164062 L 86.394531 226.71875 L 95.535156 226.71875 L 89.65625 241.324219 " fill-opacity="1" fill-rule="nonzero"/><path fill="#f5ece5" d="M 78.460938 213.351562 L 66.261719 182.871094 L 66.261719 162.019531 L 78.460938 162.019531 L 78.460938 213.351562 " fill-opacity="1" fill-rule="nonzero"/><path fill="#f5ece5" d="M 95.535156 226.71875 L 86.394531 226.71875 L 86.394531 172.167969 L 98.597656 172.167969 L 98.597656 219.117188 L 95.535156 226.71875 " fill-opacity="1" fill-rule="nonzero"/><path fill="#f5ece5" d="M 106.5625 199.335938 L 106.5625 145.398438 L 118.761719 145.398438 L 118.761719 169.027344 L 106.5625 199.335938 " fill-opacity="1" fill-rule="nonzero"/><path fill="#abaeb0" d="M 74.191406 86.457031 L 27.667969 86.457031 L 25.914062 82.074219 L 68.742188 82.074219 L 74.191406 86.457031 " fill-opacity="1" fill-rule="nonzero"/><path fill="#b3b6b7" d="M 68.742188 82.074219 L 25.914062 82.074219 L 21.203125 70.304688 L 39.683594 58.710938 L 68.742188 82.074219 " fill-opacity="1" fill-rule="nonzero"/><path fill="#ffffff" d="M 126.683594 364.914062 C 103.398438 362.421875 77.394531 354.59375 51.132812 337.019531 L 57.089844 322.222656 C 76.664062 341.171875 100.347656 355.890625 126.683594 364.914062 " fill-opacity="1" fill-rule="nonzero"/><path fill="#faf5f1" d="M 144.386719 365.855469 C 138.699219 365.855469 132.785156 365.570312 126.683594 364.914062 C 100.347656 355.890625 76.664062 341.171875 57.089844 322.222656 L 78.941406 267.945312 L 100.3125 267.945312 L 102.617188 273.695312 L 95.429688 311.886719 L 95.429688 315.238281 L 119.246094 315.238281 L 120.742188 318.980469 L 95.429688 318.980469 C 95.179688 318.980469 94.980469 319.183594 94.980469 319.433594 C 94.980469 319.683594 95.179688 319.886719 95.429688 319.886719 L 121.105469 319.886719 L 127.175781 335.050781 C 162.765625 328.390625 189.167969 312.816406 208.363281 295.675781 L 214.460938 350.84375 C 214.460938 350.84375 185.484375 365.855469 144.386719 365.855469 " fill-opacity="1" fill-rule="nonzero"/><path fill="#ede4da" d="M 100.3125 267.945312 L 78.941406 267.945312 L 88.398438 244.449219 L 90.910156 244.449219 L 100.3125 267.945312 " fill-opacity="1" fill-rule="nonzero"/><path fill="#fcf9f7" d="M 90.910156 244.449219 L 88.398438 244.449219 L 89.65625 241.324219 L 90.910156 244.449219 " fill-opacity="1" fill-rule="nonzero"/><path fill="#ede4da" d="M 119.246094 315.238281 L 95.429688 315.238281 L 95.429688 311.886719 L 102.617188 273.695312 L 119.246094 315.238281 " fill-opacity="1" fill-rule="nonzero"/><path fill="#ede4da" d="M 121.105469 319.886719 L 95.429688 319.886719 C 95.179688 319.886719 94.980469 319.683594 94.980469 319.433594 C 94.980469 319.183594 95.179688 318.980469 95.429688 318.980469 L 120.742188 318.980469 L 121.105469 319.886719 " fill-opacity="1" fill-rule="nonzero"/><path fill="#faf5f1" d="M 185.3125 87.160156 L 151.71875 87.160156 L 152.003906 86.457031 L 185.234375 86.457031 L 185.3125 87.160156 " fill-opacity="1" fill-rule="nonzero"/><path fill="#ede4da" d="M 186.195312 95.15625 L 148.5 95.15625 L 151.71875 87.160156 L 185.3125 87.160156 L 186.195312 95.15625 " fill-opacity="1" fill-rule="nonzero"/><path fill="#fcf9f7" d="M 195.441406 178.773438 L 189.011719 178.773438 L 179.167969 170.863281 L 179.167969 169.773438 L 177.816406 169.773438 L 132.976562 133.722656 L 148.5 95.15625 L 186.195312 95.15625 L 195.441406 178.773438 " fill-opacity="1" fill-rule="nonzero"/><path fill="#f5ece5" d="M 179.171875 170.863281 L 177.816406 169.773438 L 179.171875 169.773438 L 179.171875 170.863281 " fill-opacity="1" fill-rule="nonzero"/><path fill="#f5ece5" d="M 196.066406 184.445312 L 189.011719 178.773438 L 195.441406 178.773438 L 196.066406 184.445312 " fill-opacity="1" fill-rule="nonzero"/><path fill="#abaeb0" d="M 185.234375 86.457031 L 152.003906 86.457031 L 153.765625 82.074219 L 184.75 82.074219 L 185.234375 86.457031 " fill-opacity="1" fill-rule="nonzero"/><path fill="#b3b6b7" d="M 184.75 82.074219 L 153.765625 82.074219 L 162.398438 60.636719 L 183.148438 67.59375 L 184.75 82.074219 " fill-opacity="1" fill-rule="nonzero"/><path fill="#fdfbf9" d="M 127.175781 335.050781 L 121.105469 319.886719 L 164.199219 319.886719 C 164.449219 319.886719 164.652344 319.683594 164.652344 319.433594 C 164.652344 319.183594 164.449219 318.980469 164.199219 318.980469 L 120.742188 318.980469 L 119.246094 315.238281 L 164.199219 315.238281 L 164.199219 311.886719 L 156.652344 271.773438 L 149.105469 271.773438 C 149.105469 277.4375 144.515625 282.027344 138.851562 282.027344 L 120.777344 282.027344 C 115.117188 282.027344 110.527344 277.4375 110.527344 271.773438 L 102.980469 271.773438 L 102.617188 273.695312 L 100.3125 267.945312 L 205.296875 267.945312 L 208.363281 295.675781 C 189.167969 312.816406 162.765625 328.390625 127.175781 335.050781 " fill-opacity="1" fill-rule="nonzero"/><path fill="#f8f4f0" d="M 205.296875 267.945312 L 100.3125 267.945312 L 90.910156 244.449219 L 202.699219 244.449219 L 205.296875 267.945312 " fill-opacity="1" fill-rule="nonzero"/><path fill="#fefdfc" d="M 202.699219 244.449219 L 90.910156 244.449219 L 89.65625 241.324219 L 95.535156 226.71875 L 98.597656 226.71875 L 98.597656 219.117188 L 106.5625 199.335938 L 106.5625 226.71875 L 118.761719 226.71875 L 118.761719 169.027344 L 132.976562 133.71875 L 177.816406 169.773438 L 166.96875 169.773438 L 166.96875 226.71875 L 179.171875 226.71875 L 179.171875 170.863281 L 189.011719 178.773438 L 187.117188 178.773438 L 187.117188 226.71875 L 199.320312 226.71875 L 199.320312 213.875 L 202.699219 244.449219 M 146.832031 184.757812 L 146.832031 226.71875 L 159.035156 226.71875 L 159.035156 184.757812 L 146.832031 184.757812 M 126.695312 161.46875 L 126.695312 226.71875 L 138.898438 226.71875 L 138.898438 161.46875 L 126.695312 161.46875 " fill-opacity="1" fill-rule="nonzero"/><path fill="#f8f4f0" d="M 164.199219 315.238281 L 119.246094 315.238281 L 102.617188 273.695312 L 102.980469 271.773438 L 110.527344 271.773438 C 110.527344 277.4375 115.117188 282.027344 120.777344 282.027344 L 138.851562 282.027344 C 144.515625 282.027344 149.105469 277.4375 149.105469 271.773438 L 156.652344 271.773438 L 164.199219 311.886719 L 164.199219 315.238281 " fill-opacity="1" fill-rule="nonzero"/><path fill="#f8f4f0" d="M 164.199219 319.886719 L 121.105469 319.886719 L 120.742188 318.980469 L 164.199219 318.980469 C 164.449219 318.980469 164.652344 319.183594 164.652344 319.433594 C 164.652344 319.683594 164.449219 319.886719 164.199219 319.886719 " fill-opacity="1" fill-rule="nonzero"/><path fill="#fbf7f5" d="M 98.597656 226.71875 L 95.535156 226.71875 L 98.597656 219.117188 L 98.597656 226.71875 " fill-opacity="1" fill-rule="nonzero"/><path fill="#fbf7f5" d="M 118.761719 226.71875 L 106.5625 226.71875 L 106.5625 199.335938 L 118.761719 169.027344 L 118.761719 226.71875 " fill-opacity="1" fill-rule="nonzero"/><path fill="#fbf7f5" d="M 126.695312 226.71875 L 138.898438 226.71875 L 138.898438 161.46875 L 126.695312 161.46875 Z M 126.695312 226.71875 " fill-opacity="1" fill-rule="nonzero"/><path fill="#fbf7f5" d="M 146.832031 226.71875 L 159.035156 226.71875 L 159.035156 184.757812 L 146.832031 184.757812 Z M 146.832031 226.71875 " fill-opacity="1" fill-rule="nonzero"/><path fill="#fbf7f5" d="M 179.171875 226.71875 L 166.96875 226.71875 L 166.96875 169.773438 L 177.816406 169.773438 L 179.171875 170.863281 L 179.171875 226.71875 " fill-opacity="1" fill-rule="nonzero"/><path fill="#fbf7f5" d="M 199.320312 226.71875 L 187.117188 226.71875 L 187.117188 178.773438 L 189.011719 178.773438 L 196.066406 184.445312 L 199.320312 213.875 L 199.320312 226.71875 " fill-opacity="1" fill-rule="nonzero"/><path fill="#ffffff" d="M 41.859375 65.261719 C 41.859375 59.214844 36.960938 54.316406 30.914062 54.316406 C 24.871094 54.316406 19.972656 59.214844 19.972656 65.261719 C 19.972656 71.308594 24.871094 76.207031 30.914062 76.207031 C 36.960938 76.207031 41.859375 71.308594 41.859375 65.261719 " fill-opacity="1" fill-rule="nonzero"/><path fill="#363e44" d="M 39.683594 65.261719 C 39.683594 60.421875 35.757812 56.496094 30.914062 56.496094 C 26.074219 56.496094 22.148438 60.421875 22.148438 65.261719 C 22.148438 70.105469 26.074219 74.027344 30.914062 74.027344 C 35.757812 74.027344 39.683594 70.105469 39.683594 65.261719 " fill-opacity="1" fill-rule="nonzero"/><path fill="#ffffff" d="M 183.480469 65.261719 C 183.480469 59.214844 178.578125 54.316406 172.535156 54.316406 C 166.492188 54.316406 161.59375 59.214844 161.59375 65.261719 C 161.59375 71.308594 166.492188 76.207031 172.535156 76.207031 C 178.578125 76.207031 183.480469 71.308594 183.480469 65.261719 " fill-opacity="1" fill-rule="nonzero"/><path fill="#363e44" d="M 181.304688 65.261719 C 181.304688 60.421875 177.375 56.496094 172.535156 56.496094 C 167.691406 56.496094 163.769531 60.421875 163.769531 65.261719 C 163.769531 70.105469 167.691406 74.027344 172.535156 74.027344 C 177.375 74.027344 181.304688 70.105469 181.304688 65.261719 " fill-opacity="1" fill-rule="nonzero"/><path fill="#ffffff" d="M 260.027344 14.542969 C 249.855469 10.273438 239.230469 6.875 228.234375 4.4375 L 260.003906 4.34375 L 260.027344 14.542969 " fill-opacity="1" fill-rule="nonzero"/><path fill="#f9f3ee" d="M 260.148438 63.367188 L 250.425781 51.875 L 199.320312 51.875 L 199.320312 44.066406 L 181.421875 44.066406 L 181.304688 4.578125 L 228.238281 4.4375 C 239.230469 6.871094 249.855469 10.269531 260.03125 14.539062 L 260.148438 63.367188 " fill-opacity="1" fill-rule="nonzero"/><path fill="#445057" d="M 199.320312 51.878906 L 191.488281 51.878906 L 191.488281 48.449219 L 181.433594 48.449219 L 181.417969 44.066406 L 199.320312 44.066406 L 199.320312 51.878906 " fill-opacity="1" fill-rule="nonzero"/><path fill="#606c72" d="M 191.488281 51.878906 L 181.445312 51.878906 L 181.4375 48.449219 L 191.488281 48.449219 L 191.488281 51.878906 " fill-opacity="1" fill-rule="nonzero"/><path fill="#d87355" d="M 184.765625 48.554688 L 253.296875 48.554688 C 253.429688 48.554688 253.554688 48.613281 253.640625 48.714844 L 262.5625 59.257812 L 262.425781 1.921875 L 184.625 2.15625 Z M 263.015625 60.949219 C 262.886719 60.949219 262.757812 60.890625 262.675781 60.789062 L 253.085938 49.457031 L 184.316406 49.457031 C 184.066406 49.457031 183.863281 49.257812 183.863281 49.007812 L 183.722656 1.710938 C 183.722656 1.460938 183.921875 1.253906 184.175781 1.253906 L 262.875 1.019531 C 262.996094 1.019531 263.109375 1.066406 263.191406 1.148438 C 263.28125 1.234375 263.328125 1.351562 263.328125 1.46875 L 263.46875 60.492188 C 263.46875 60.683594 263.351562 60.855469 263.175781 60.921875 C 263.121094 60.941406 263.066406 60.949219 263.015625 60.949219 " fill-opacity="1" fill-rule="nonzero"/><path fill="#d87355" d="M 213.402344 25.601562 C 214.167969 25.601562 214.832031 25.402344 215.386719 25.007812 C 215.9375 24.613281 216.359375 24.140625 216.644531 23.578125 L 216.644531 21.621094 C 216.644531 20.007812 216.335938 18.761719 215.722656 17.871094 C 215.109375 16.984375 214.285156 16.539062 213.253906 16.539062 C 212.304688 16.539062 211.519531 16.976562 210.902344 17.847656 C 210.289062 18.71875 209.984375 19.8125 209.984375 21.128906 C 209.984375 22.433594 210.28125 23.503906 210.878906 24.34375 C 211.476562 25.183594 212.316406 25.601562 213.402344 25.601562 Z M 216.578125 27.410156 C 215.335938 28.625 213.890625 29.234375 212.234375 29.234375 C 210.121094 29.234375 208.425781 28.507812 207.15625 27.054688 C 205.882812 25.605469 205.246094 23.644531 205.246094 21.179688 C 205.246094 19.609375 205.589844 18.171875 206.273438 16.859375 C 206.960938 15.550781 207.917969 14.53125 209.144531 13.804688 C 210.375 13.074219 211.753906 12.710938 213.289062 12.710938 C 214.867188 12.710938 216.269531 13.105469 217.5 13.894531 C 218.722656 14.683594 219.679688 15.820312 220.359375 17.296875 C 221.039062 18.777344 221.382812 20.472656 221.394531 22.378906 L 221.394531 24.140625 C 221.394531 28.128906 220.402344 31.261719 218.417969 33.542969 C 216.433594 35.824219 213.621094 37.039062 209.984375 37.195312 L 208.816406 37.210938 L 208.816406 33.246094 L 209.867188 33.230469 C 214.003906 33.046875 216.238281 31.105469 216.578125 27.410156 " fill-opacity="1" fill-rule="nonzero"/><path fill="#d87355" d="M 225.492188 25.203125 L 226.875 13.039062 L 240.289062 13.039062 L 240.289062 17 L 230.769531 17 L 230.175781 22.144531 C 231.304688 21.542969 232.503906 21.242188 233.777344 21.242188 C 236.058594 21.242188 237.84375 21.949219 239.136719 23.363281 C 240.429688 24.777344 241.078125 26.753906 241.078125 29.300781 C 241.078125 30.84375 240.753906 32.230469 240.101562 33.449219 C 239.449219 34.671875 238.511719 35.621094 237.296875 36.296875 C 236.078125 36.96875 234.640625 37.308594 232.988281 37.308594 C 231.539062 37.308594 230.195312 37.015625 228.960938 36.425781 C 227.722656 35.839844 226.742188 35.015625 226.023438 33.953125 C 225.304688 32.890625 224.925781 31.675781 224.878906 30.320312 L 229.585938 30.320312 C 229.683594 31.316406 230.03125 32.09375 230.625 32.644531 C 231.226562 33.199219 232.003906 33.476562 232.972656 33.476562 C 234.046875 33.476562 234.875 33.085938 235.453125 32.316406 C 236.035156 31.542969 236.328125 30.453125 236.328125 29.035156 C 236.328125 27.675781 235.988281 26.632812 235.320312 25.914062 C 234.65625 25.1875 233.703125 24.828125 232.480469 24.828125 C 231.347656 24.828125 230.433594 25.125 229.730469 25.714844 L 229.269531 26.144531 L 225.492188 25.203125 " fill-opacity="1" fill-rule="nonzero"/><path fill="#efbc73" d="M 194.605469 283.496094 C 181.523438 283.496094 170.882812 294.136719 170.882812 307.21875 C 170.882812 320.296875 181.523438 330.9375 194.605469 330.9375 C 207.683594 330.9375 218.324219 320.296875 218.324219 307.21875 C 218.324219 294.136719 207.683594 283.496094 194.605469 283.496094 Z M 194.605469 331.839844 C 181.027344 331.839844 169.980469 320.796875 169.980469 307.21875 C 169.980469 293.640625 181.027344 282.59375 194.605469 282.59375 C 208.183594 282.59375 219.226562 293.640625 219.226562 307.21875 C 219.226562 320.796875 208.183594 331.839844 194.605469 331.839844 " fill-opacity="1" fill-rule="nonzero"/><path fill="#efbc73" d="M 194.605469 307.367188 C 186.914062 307.367188 181.925781 310.3125 181.925781 315.027344 C 184.324219 319.585938 189.101562 322.691406 194.605469 322.691406 C 200.109375 322.691406 204.886719 319.585938 207.28125 315.027344 C 207.28125 310.558594 201.796875 307.367188 194.605469 307.367188 " fill-opacity="1" fill-rule="nonzero"/><path fill="#efbc73" d="M 201.144531 297.160156 C 201.144531 300.769531 198.214844 303.699219 194.605469 303.699219 C 190.992188 303.699219 188.066406 300.769531 188.066406 297.160156 C 188.066406 293.550781 190.992188 290.621094 194.605469 290.621094 C 198.214844 290.621094 201.144531 293.550781 201.144531 297.160156 " fill-opacity="1" fill-rule="nonzero"/><path fill="#efbc73" d="M 47.066406 312.054688 C 32.171875 312.054688 20.054688 324.167969 20.054688 339.0625 C 20.054688 353.957031 32.171875 366.074219 47.066406 366.074219 C 61.957031 366.074219 74.074219 353.957031 74.074219 339.0625 C 74.074219 324.167969 61.957031 312.054688 47.066406 312.054688 Z M 47.066406 366.976562 C 31.671875 366.976562 19.152344 354.453125 19.152344 339.0625 C 19.152344 323.671875 31.671875 311.148438 47.066406 311.148438 C 62.457031 311.148438 74.976562 323.671875 74.976562 339.0625 C 74.976562 354.453125 62.457031 366.976562 47.066406 366.976562 " fill-opacity="1" fill-rule="nonzero"/><path fill="#efbc73" d="M 47.066406 339.234375 C 38.332031 339.234375 32.660156 342.578125 32.660156 347.9375 C 35.386719 353.113281 40.8125 356.644531 47.066406 356.644531 C 53.320312 356.644531 58.746094 353.113281 61.46875 347.9375 C 61.46875 342.859375 55.234375 339.234375 47.066406 339.234375 " fill-opacity="1" fill-rule="nonzero"/><path fill="#efbc73" d="M 54.492188 327.636719 C 54.492188 331.738281 51.167969 335.066406 47.066406 335.066406 C 42.960938 335.066406 39.636719 331.738281 39.636719 327.636719 C 39.636719 323.53125 42.960938 320.207031 47.066406 320.207031 C 51.167969 320.207031 54.492188 323.53125 54.492188 327.636719 " fill-opacity="1" fill-rule="nonzero"/><path fill="#efbc73" d="M 119.875 244.523438 C 104.980469 244.523438 92.863281 256.640625 92.863281 271.535156 C 92.863281 286.429688 104.980469 298.542969 119.875 298.542969 C 134.765625 298.542969 146.882812 286.429688 146.882812 271.535156 C 146.882812 256.640625 134.765625 244.523438 119.875 244.523438 Z M 119.875 299.449219 C 104.480469 299.449219 91.960938 286.925781 91.960938 271.535156 C 91.960938 256.144531 104.480469 243.621094 119.875 243.621094 C 135.265625 243.621094 147.785156 256.144531 147.785156 271.535156 C 147.785156 286.925781 135.265625 299.449219 119.875 299.449219 " fill-opacity="1" fill-rule="nonzero"/><path fill="#efbc73" d="M 119.875 271.707031 C 111.136719 271.707031 105.46875 275.050781 105.46875 280.410156 C 108.191406 285.585938 113.621094 289.113281 119.875 289.113281 C 126.128906 289.113281 131.554688 285.585938 134.277344 280.410156 C 134.277344 275.332031 128.042969 271.707031 119.875 271.707031 " fill-opacity="1" fill-rule="nonzero"/><path fill="#efbc73" d="M 127.300781 260.109375 C 127.300781 264.210938 123.976562 267.535156 119.875 267.535156 C 115.769531 267.535156 112.445312 264.210938 112.445312 260.109375 C 112.445312 256.003906 115.769531 252.679688 119.875 252.679688 C 123.976562 252.679688 127.300781 256.003906 127.300781 260.109375 " fill-opacity="1" fill-rule="nonzero"/><path fill="#efbc73" d="M 75.910156 110.816406 C 65.714844 110.816406 57.421875 119.109375 57.421875 129.300781 C 57.421875 139.496094 65.714844 147.789062 75.910156 147.789062 C 86.101562 147.789062 94.394531 139.496094 94.394531 129.300781 C 94.394531 119.109375 86.101562 110.816406 75.910156 110.816406 Z M 75.910156 148.691406 C 65.214844 148.691406 56.519531 139.996094 56.519531 129.300781 C 56.519531 118.609375 65.214844 109.910156 75.910156 109.910156 C 86.601562 109.910156 95.300781 118.609375 95.300781 129.300781 C 95.300781 139.996094 86.601562 148.691406 75.910156 148.691406 " fill-opacity="1" fill-rule="nonzero"/><path fill="#efbc73" d="M 75.910156 129.421875 C 69.886719 129.421875 65.976562 131.726562 65.976562 135.425781 C 67.851562 138.992188 71.59375 141.425781 75.910156 141.425781 C 80.222656 141.425781 83.964844 138.992188 85.84375 135.425781 C 85.84375 131.921875 81.542969 129.421875 75.910156 129.421875 " fill-opacity="1" fill-rule="nonzero"/><path fill="#efbc73" d="M 81.03125 121.421875 C 81.03125 124.253906 78.738281 126.542969 75.910156 126.542969 C 73.078125 126.542969 70.785156 124.253906 70.785156 121.421875 C 70.785156 118.59375 73.078125 116.300781 75.910156 116.300781 C 78.738281 116.300781 81.03125 118.59375 81.03125 121.421875 " fill-opacity="1" fill-rule="nonzero"/><path fill="#efbc73" d="M 136.78125 329.03125 C 127.875 329.03125 120.628906 336.277344 120.628906 345.183594 C 120.628906 354.09375 127.875 361.339844 136.78125 361.339844 C 145.691406 361.339844 152.9375 354.09375 152.9375 345.183594 C 152.9375 336.277344 145.691406 329.03125 136.78125 329.03125 Z M 136.78125 362.242188 C 127.378906 362.242188 119.726562 354.589844 119.726562 345.183594 C 119.726562 335.78125 127.378906 328.128906 136.78125 328.128906 C 146.1875 328.128906 153.839844 335.78125 153.839844 345.183594 C 153.839844 354.589844 146.1875 362.242188 136.78125 362.242188 " fill-opacity="1" fill-rule="nonzero"/><path fill="#efbc73" d="M 136.78125 345.289062 C 131.5 345.289062 128.074219 347.3125 128.074219 350.554688 C 129.71875 353.683594 133 355.816406 136.78125 355.816406 C 140.5625 355.816406 143.84375 353.683594 145.492188 350.554688 C 145.492188 347.480469 141.722656 345.289062 136.78125 345.289062 " fill-opacity="1" fill-rule="nonzero"/><path fill="#efbc73" d="M 141.273438 338.277344 C 141.273438 340.757812 139.265625 342.769531 136.78125 342.769531 C 134.300781 342.769531 132.289062 340.757812 132.289062 338.277344 C 132.289062 335.796875 134.300781 333.785156 136.78125 333.785156 C 139.265625 333.785156 141.273438 335.796875 141.273438 338.277344 " fill-opacity="1" fill-rule="nonzero"/><path fill="#efbc73" d="M 162.175781 167.980469 C 147.28125 167.980469 135.164062 180.097656 135.164062 194.992188 C 135.164062 209.886719 147.28125 222.003906 162.175781 222.003906 C 177.066406 222.003906 189.183594 209.886719 189.183594 194.992188 C 189.183594 180.097656 177.066406 167.980469 162.175781 167.980469 Z M 162.175781 222.90625 C 146.78125 222.90625 134.257812 210.382812 134.257812 194.992188 C 134.257812 179.601562 146.78125 167.078125 162.175781 167.078125 C 177.566406 167.078125 190.089844 179.601562 190.089844 194.992188 C 190.089844 210.382812 177.566406 222.90625 162.175781 222.90625 " fill-opacity="1" fill-rule="nonzero"/><path fill="#efbc73" d="M 162.175781 195.164062 C 153.441406 195.164062 147.769531 198.507812 147.769531 203.867188 C 150.492188 209.042969 155.921875 212.570312 162.175781 212.570312 C 168.429688 212.570312 173.855469 209.042969 176.578125 203.867188 C 176.578125 198.792969 170.34375 195.164062 162.175781 195.164062 " fill-opacity="1" fill-rule="nonzero"/><path fill="#efbc73" d="M 169.601562 183.566406 C 169.601562 187.667969 166.277344 190.992188 162.175781 190.992188 C 158.070312 190.992188 154.746094 187.667969 154.746094 183.566406 C 154.746094 179.464844 158.070312 176.136719 162.175781 176.136719 C 166.277344 176.136719 169.601562 179.464844 169.601562 183.566406 " fill-opacity="1" fill-rule="nonzero"/></svg>